<?xml version="1.0" standalone="no"?>
<!DOCTYPE svg PUBLIC "-//W3C//DTD SVG 1.1//EN" "http://www.w3.org/Graphics/SVG/1.1/DTD/svg11.dtd" >
<svg xmlns="http://www.w3.org/2000/svg">
<metadata>Generated by IcoMoon</metadata>
<defs>
<font id="icomoon" horiz-adv-x="1024">
<font-face units-per-em="1024" ascent="960" descent="-64" />
<missing-glyph horiz-adv-x="1024" />
<glyph unicode="&#x20;" horiz-adv-x="512" d="" />
<glyph unicode="&#xe900;" glyph-name="account" horiz-adv-x="1025" d="M944.022 39.57c-57.745 158.524-172.421 273.696-308.535 317.904 27.283 13.499 52.477 31.504 74.632 53.659 53.344 53.344 82.722 124.268 82.722 199.708s-29.377 146.364-82.722 199.708-124.269 82.722-199.709 82.722-146.364-29.377-199.708-82.722-82.722-124.268-82.722-199.707c0-75.44 29.377-146.364 82.722-199.708 22.187-22.187 47.422-40.211 74.752-53.717-136.034-44.252-250.635-159.392-308.354-317.847-2.745-7.534-1.64-15.934 2.958-22.503 4.598-6.568 12.113-10.48 20.132-10.48h820.743c8.018 0 15.532 3.912 20.131 10.48s5.702 14.968 2.958 22.503zM277.128 610.842c0 62.312 24.266 120.895 68.327 164.956s102.645 68.327 164.956 68.327 120.895-24.266 164.956-68.327c44.062-44.061 68.327-102.645 68.327-164.956 0-62.313-24.265-120.895-68.327-164.956s-102.643-68.327-164.956-68.327c-62.312 0-120.895 24.265-164.956 68.327-44.061 44.061-68.327 102.643-68.327 164.956zM136.476 55.733c33.14 75.788 81.512 140.317 141.238 188.042 69.148 55.253 149.665 84.457 232.848 84.457 83.181 0 163.699-29.204 232.847-84.457 59.727-47.724 108.099-112.255 141.239-188.042h-748.171z" />
<glyph unicode="&#xe901;" glyph-name="collect" horiz-adv-x="1732" d="M824.87 960c-99.576 0-193.382-44.651-256.005-117.204-62.602 72.553-156.43 117.204-255.962 117.204-176.396 0-312.903-133.911-312.903-306.94 0-212.062 193.382-382.26 486.382-644.506l82.461-72.553 82.504 72.553c293 262.246 486.339 432.445 486.339 644.506 0.043 173.008-136.463 306.94-312.817 306.94v0 0zM604.016 81.986l-11.56-10.337-23.591-20.739-23.505 20.739-11.517 10.337c-137.943 123.36-257.013 229.991-335.764 325.256-76.456 92.563-110.556 168.375-110.556 245.818 0 60.972 23.076 117.14 64.897 158.167 41.67 40.877 98.61 63.417 160.505 63.417 71.459 0 142.125-32.405 189.028-86.772l66.913-77.636 66.998 77.636c46.817 54.345 117.526 86.772 189.007 86.772 61.808 0 118.813-22.54 160.526-63.417 41.842-41.027 64.875-97.195 64.875-158.167 0-77.421-34.143-153.256-110.535-245.818-78.837-95.265-197.843-201.875-335.722-325.256v0 0zM1212.321 485.671h500.129c10.637 0 19.237-8.621 19.237-19.237v-38.496c0-10.595-8.621-19.195-19.237-19.195h-500.129c-10.68 0-19.237 8.621-19.237 19.195v38.496c0 10.637 8.579 19.237 19.237 19.237v0zM1212.321 62.512h500.129c10.637 0 19.237-8.621 19.237-19.237v-38.496c0-10.637-8.621-19.237-19.237-19.237h-500.129c-10.68 0-19.237 8.621-19.237 19.237v38.496c0 10.616 8.579 19.237 19.237 19.237v0zM1212.321 910.416h500.129c10.637 0 19.237-8.621 19.237-19.237v-38.453c0-10.637-8.621-19.237-19.237-19.237h-500.129c-10.68 0-19.237 8.621-19.237 19.237v38.453c0 10.637 8.579 19.237 19.237 19.237v0z" />
<glyph unicode="&#xe902;" glyph-name="comment" d="M316.509 117.527l-76.8 125.673h-97.745v512h742.4v-514.327h-500.364l-67.491-123.345zM188.509 289.745h76.8l48.873-79.127 41.891 79.127h479.418v418.909h-646.982v-418.909zM253.673 603.927h425.891v-46.545h-425.891zM223.418 468.945h335.127v-46.545h-335.127z" />
<glyph unicode="&#xe903;" glyph-name="cycle-play" d="M694.4 105.6h-499.2l48-44.8c9.6-6.4 16-16 16-28.8-3.2-19.2-19.2-32-38.4-32-9.6 0-22.4 6.4-28.8 12.8l-108.8 96c-12.8 12.8-16 35.2 0 48l108.8 99.2c6.4 6.4 19.2 9.6 28.8 9.6 19.2 0 35.2-16 35.2-35.2 0-9.6-6.4-19.2-12.8-25.6l-41.6-38.4h496c112 0 198.4 89.6 198.4 198.4v86.4c0 19.2 12.8 32 32 32s32-12.8 32-32v-86.4c0-140.8-118.4-259.2-265.6-259.2zM329.6 790.4h496l-48 44.8c-9.6 6.4-16 16-16 28.8 3.2 19.2 19.2 32 38.4 32 9.6 0 22.4-6.4 28.8-12.8l108.8-96c12.8-12.8 16-35.2 0-48l-105.6-99.2c-6.4-6.4-19.2-9.6-28.8-9.6-19.2 0-35.2 16-35.2 35.2 0 9.6 6.4 19.2 12.8 25.6l41.6 38.4h-496c-108.8-3.2-198.4-92.8-198.4-204.8v-89.6c0-19.2-12.8-32-32-32s-32 12.8-32 32v86.4c0 150.4 118.4 268.8 265.6 268.8z" />
<glyph unicode="&#xe904;" glyph-name="elli" d="M147.012 529.109c-44.791 0-81.108-36.304-81.108-81.109 0-44.779 36.316-81.108 81.108-81.108s81.109 36.329 81.109 81.108c0 44.805-36.316 81.109-81.109 81.109zM511.999 529.109c-44.791 0-81.108-36.304-81.108-81.109 0-44.779 36.316-81.108 81.108-81.108s81.109 36.329 81.109 81.108c0 44.805-36.317 81.109-81.109 81.109zM876.987 529.109c-44.791 0-81.108-36.304-81.108-81.109 0-44.779 36.316-81.108 81.108-81.108s81.108 36.329 81.108 81.108c-0.001 44.805-36.317 81.109-81.108 81.109z" />
<glyph unicode="&#xe905;" glyph-name="fm" d="M867.254 718.17h-256.669l243.771 113.76-18.903 40.507-334.934-154.123-329.072 156.217-19.051-41.367 243.178-114.994h-243.508c-49.374 0-89.397-40.025-89.397-89.397v-491.692c0-49.374 40.026-89.398 89.397-89.398h715.188c49.375 0 89.398 40.026 89.398 89.398v491.691c0 49.374-40.026 89.398-89.398 89.398zM844.905 92.381h-670.488c-37.030 0-67.048 30.018-67.048 67.049v446.99c0 37.030 30.018 67.049 67.048 67.049h670.488c37.030 0 67.048-30.018 67.048-67.049v-446.99h0.001c0-37.031-30.018-67.049-67.049-67.049zM554.361 628.771h-312.896c-49.374 0-89.398-40.026-89.398-89.399v-312.894c0-49.374 40.027-89.398 89.398-89.398h312.895c49.374 0 89.397 40.026 89.397 89.398v312.894c0.001 49.374-40.025 89.398-89.396 89.399zM532.011 181.779h-268.197c-37.030 0-67.048 30.018-67.048 67.048v268.197c0 37.030 30.018 67.048 67.048 67.048h268.195c37.031 0 67.048-30.018 67.048-67.048v-268.195h0.001c0-37.030-30.018-67.049-67.048-67.049zM777.856 449.974c49.373 0 89.397 40.025 89.397 89.397 0.001 49.375-40.025 89.398-89.397 89.399-49.374 0-89.397-40.026-89.397-89.399s40.025-89.397 89.397-89.397zM777.856 584.071c24.686 0 44.7-20.013 44.7-44.7s-20.012-44.699-44.7-44.699c-24.686 0-44.7 20.013-44.7 44.699 0 24.688 20.014 44.7 44.7 44.7zM688.458 204.128h178.797v-44.698h-178.797zM688.458 293.527h178.797v-44.7h-178.797z" />
<glyph unicode="&#xe906;" glyph-name="friend" d="M882.607 339.71c-32.233 46.502-75.779 81.467-126.4 101.612 22.324 15.705 41.105 36.646 54.68 61.068 15.712 28.268 24.018 60.572 24.018 93.42 0 102.398-79.285 185.705-176.74 185.705-13.838 0-25.097-11.258-25.097-25.098 0-13.855 11.26-25.128 25.097-25.128 69.743 0 126.483-60.775 126.483-135.479 0-74.72-56.74-135.507-126.483-135.507-13.838 0-25.097-11.265-25.097-25.113v-0.136c0-13.855 11.26-25.128 25.097-25.128 125.464 0 227.537-108.816 227.537-242.569 0-13.873 11.285-25.159 25.158-25.159 13.838 0 25.097 11.286 25.097 25.16 0.001 62.398-18.448 121.998-53.35 172.353zM623.157 382.326c-26.348 18.662-55 33.4-85.316 43.896 64.020 38.906 103.316 108.15 103.316 183.412 0 118.333-96.263 214.605-214.588 214.605-118.359 0-214.65-96.272-214.65-214.605 0-40.29 11.283-79.585 32.63-113.642 18.284-28.868 42.306-52.491 70.619-69.779l0.949-0.539c-30.826-10.524-59.95-25.425-86.697-44.37-29.407-20.984-54.555-45.474-75.57-73.264l-0.625-0.862c-44.566-59.376-68.122-130.018-68.122-204.29 0-13.838 11.258-25.098 25.097-25.098 13.856 0 25.129 11.26 25.129 25.098 0 77.456 30.203 150.434 85.044 205.489 54.71 54.925 127.125 85.207 203.921 85.283 0.646-0.060 1.397-0.093 2.156-0.093 1.941 0 3.831 0.222 5.644 0.642l-0.168-0.033 1.991 0.446c74.72-1.513 144.954-31.659 198.33-85.262 54.815-55.050 85.003-128.013 85.003-205.448 0-13.838 11.273-25.097 25.128-25.097 13.839 0 25.098 11.26 25.098 25.097 0 74.272-23.556 144.914-68.121 204.29-21.643 28.65-46.792 53.14-75.158 73.417l-1.040 0.707zM426.57 773.998c90.629 0 164.362-73.734 164.362-164.364 0-90.638-73.733-164.379-164.362-164.379-90.648 0-164.393 73.741-164.393 164.38-0.001 90.63 73.745 164.363 164.393 164.363z" />
<glyph unicode="&#xe907;" glyph-name="Like" d="M826.238 780.729c-39.544 27.679-84.441 40.471-129.3 40.471-68.5 0-136.897-29.8-186.082-81.876-49.177 52.069-117.591 81.876-186.083 81.876-44.859 0-89.749-12.783-129.299-40.471-109.882-76.95-136.595-228.401-59.654-338.291 0 0 30.275-38.452 50.41-60.385 16.494-17.983 246.951-239.22 309.138-297.86 0 0 7.382-7.062 15.534-7.062 8.809 0 15.426 7.062 15.426 7.062 62.179 58.64 292.66 279.876 309.154 297.86 20.134 21.934 50.4 60.385 50.4 60.385 76.95 109.89 50.244 261.341-59.644 338.291zM847.4 470.982c-4.941-6.251-30.343-38.187-47.196-56.551-13.874-15.059-236.016-227.824-281.241-271.124v0c-1.964-2.509-5.043-3.74-8.48-3.74-1.708 0-3.477 0.49-5.098 1.199-38.17 36.542-269.619 258.193-283.875 273.665-16.851 18.364-42.247 50.291-47.196 56.551-29.324 42.466-40.525 93.77-31.562 144.638 9.050 51.297 37.524 96 80.193 125.878 29.721 20.812 64.937 31.81 101.83 31.81 55.997 0 111.129-24.375 151.264-66.871l34.818-36.862 34.82 36.862c40.134 42.497 95.266 66.871 151.263 66.871 36.893 0 72.109-10.998 101.83-31.81 42.669-29.877 71.143-74.581 80.193-125.878 8.969-50.868-2.239-102.172-31.564-144.638z" />
<glyph unicode="&#xe908;" glyph-name="like-red" d="M725.333 768c-89.6 0-168.533-44.8-213.333-115.2-44.8 70.4-123.733 115.2-213.333 115.2-140.8 0-256-115.2-256-256 0-253.867 469.333-512 469.333-512s469.333 256 469.333 512c0 140.8-115.2 256-256 256z" />
<glyph unicode="&#xe909;" glyph-name="microphone" d="M853.333 533.333v-85.333c0-174.059-130.293-317.685-298.667-338.688v-87.979h128c23.561-0.004 42.66-19.105 42.66-42.667s-19.099-42.663-42.66-42.667h-341.334c-23.561 0.004-42.66 19.105-42.66 42.667s19.099 42.663 42.66 42.667h128v87.979c-168.373 21.003-298.667 164.629-298.667 338.688v85.333c0.004 23.561 19.105 42.66 42.667 42.66s42.663-19.099 42.667-42.66v0-85.333c0-141.387 114.613-256 256-256s256 114.613 256 256v85.333c0.004 23.561 19.105 42.66 42.667 42.66s42.663-19.099 42.667-42.66v0zM512 960c-94.261 0-170.667-76.405-170.667-170.667v-341.333c0-94.261 76.405-170.667 170.667-170.667s170.667 76.405 170.667 170.667v341.333c0 94.261-76.405 170.667-170.667 170.667zM512 362.667c-47.128 0-85.333 38.205-85.333 85.333v0 341.333c0 47.128 38.205 85.333 85.333 85.333s85.333-38.205 85.333-85.333v0-341.333c0-47.128-38.205-85.333-85.333-85.333v0z" />
<glyph unicode="&#xe90a;" glyph-name="music" horiz-adv-x="1025" d="M1001.167 944.992c-11.616 9.76-26.176 15.008-41.12 15.008-3.68 0-7.424-0.32-11.136-0.992l-544.064-96c-30.592-5.376-52.864-31.936-52.864-63.008v-549.44c-32.48 23.552-74.624 37.44-121.408 37.44-27.2 0-54.4-4.512-80.928-13.312-60.736-20.256-109.44-60.864-133.632-111.488-18.688-39.136-21.088-81.696-6.848-119.872 24.352-65.216 93.536-107.328 176.256-107.328 27.2 0 54.4 4.448 80.896 13.312 60.704 20.192 109.408 60.8 133.6 111.36 10.4 21.824 15.264 44.672 15.456 67.328h0.576v512c3.68 0 7.424 0.32 11.136 0.928l532.96 94.048v-388.416c-32.512 23.552-74.624 37.44-121.44 37.44-27.2 0-54.432-4.512-80.928-13.312-60.736-20.256-109.44-60.864-133.568-111.488-18.688-39.136-21.12-81.696-6.88-119.872 24.384-65.216 93.504-107.328 176.256-107.328 27.2 0 54.432 4.448 80.928 13.312 60.672 20.192 109.376 60.8 133.568 111.36 10.432 21.824 15.264 44.672 15.488 67.328h0.576v672c0 18.88-8.384 36.864-22.88 48.992zM246.031 9.984c-76.672-25.568-155.936-0.576-176.928 55.68-21.056 56.32 24.032 122.688 100.672 148.256 76.672 25.568 155.936 0.64 176.928-55.68 21.088-56.288-24-122.688-100.672-148.256zM852.911 105.984c-76.736-25.568-156-0.576-176.992 55.68-21.056 56.32 24.064 122.688 100.672 148.256 76.736 25.568 156 0.64 176.992-55.68 21.088-56.288-23.968-122.688-100.672-148.256zM958.735 800l-544.064-96v96l544.064 96v-96z" />
<glyph unicode="&#xe90b;" glyph-name="music-1" d="M512-12.8c-253.952 0-460.8 206.848-460.8 460.8s206.848 460.8 460.8 460.8 460.8-206.848 460.8-460.8c0-17.408-13.312-30.72-30.72-30.72s-30.72 13.312-30.72 30.72c0 220.16-179.2 399.36-399.36 399.36s-399.36-179.2-399.36-399.36 179.2-399.36 399.36-399.36c17.408 0 30.72-13.312 30.72-30.72s-13.312-30.72-30.72-30.72zM512-12.8c-253.952 0-460.8 206.848-460.8 460.8s206.848 460.8 460.8 460.8 460.8-206.848 460.8-460.8c0-83.968-22.528-164.864-65.536-236.544-9.216-14.336-27.648-19.456-41.984-10.24s-19.456 27.648-10.24 41.984c36.864 61.44 56.32 133.12 56.32 204.8 0 220.16-179.2 399.36-399.36 399.36s-399.36-179.2-399.36-399.36 179.2-399.36 399.36-399.36c91.136 0 177.152 29.696 247.808 87.040 6.144 5.12 13.312 11.264 19.456 16.384 5.12 4.096 9.216 9.216 14.336 13.312 12.288 12.288 31.744 12.288 43.008 0 12.288-12.288 12.288-31.744 0-43.008-5.12-5.12-10.24-10.24-16.384-15.36-7.168-6.144-14.336-13.312-22.528-19.456-80.896-65.536-180.224-100.352-285.696-100.352zM752.64 607.744c-9.216 0-18.432 4.096-24.576 11.264-41.984 53.248-102.4 89.088-169.984 101.376-16.384 3.072-27.648 18.432-24.576 35.84 3.072 16.384 18.432 27.648 35.84 24.576 81.92-14.336 155.648-57.344 206.848-122.88 10.24-13.312 8.192-32.768-5.12-43.008-5.12-5.12-11.264-7.168-18.432-7.168zM381.952 164.352c-23.552 0-47.104 6.144-68.608 18.432-31.744 18.432-55.296 48.128-64.512 83.968s-5.12 72.704 13.312 104.448c18.432 31.744 48.128 55.296 83.968 64.512l73.728 19.456c35.84 9.216 72.704 5.12 104.448-13.312s55.296-48.128 64.512-83.968c9.216-35.84 5.12-72.704-13.312-104.448s-48.128-55.296-83.968-64.512l-73.728-19.456c-11.264-3.072-23.552-5.12-35.84-5.12zM455.68 398.848c-7.168 0-13.312-1.024-19.456-3.072l-73.728-19.456c-19.456-5.12-35.84-18.432-46.080-35.84s-13.312-38.912-7.168-58.368c5.12-19.456 18.432-35.84 35.84-46.080s38.912-13.312 58.368-7.168l73.728 19.456c18.432 5.12 34.816 18.432 45.056 35.84s13.312 38.912 7.168 58.368c-5.12 19.456-18.432 35.84-35.84 46.080-11.264 7.168-24.576 10.24-37.888 10.24zM563.2 294.4c-17.408 0-30.72 13.312-30.72 30.72v419.84c0 17.408 13.312 30.72 30.72 30.72s30.72-13.312 30.72-30.72v-419.84c0-17.408-13.312-30.72-30.72-30.72z" />
<glyph unicode="&#xe90c;" glyph-name="music-2" d="M130.265 89.964c24.356-63.091 110.928-88.438 193.364-56.613s129.519 108.768 105.163 171.859v0c-24.356 63.091-110.928 88.438-193.364 56.613s-129.519-108.768-105.163-171.859v0zM591.082 185.953c0.001-0.001 0.001-0.003 0.002-0.004 24.356-63.091 110.928-88.438 193.364-56.613s129.519 108.768 105.163 171.859c-0.001 0.002-0.001 0.003-0.002 0.005v0c-0.001 0.001-0.001 0.003-0.002 0.004-24.356 63.091-110.928 88.438-193.364 56.613s-129.519-108.768-105.163-171.859c0.001-0.002 0.001-0.003 0.002-0.005v0zM783.787 861.44l-355.413-113.067c-35.845-11.065-61.44-43.901-61.44-82.716 0-0.020 0-0.040 0-0.060v0.003-495.787h68.267v401.92c0 8.107 5.12 15.36 13.227 17.493l355.84 113.493c1.707 0.427 3.413 0.853 5.12 0.853 8.96 0 18.347-7.253 18.347-18.347v-418.133h68.267v512c0 58.027-56.32 99.413-112.213 82.347z" />
<glyph unicode="&#xe90d;" glyph-name="myFm" d="M947.844 670.959c-73.836 171.015-241.023 288.531-435.658 288.531-261.324 0-473.169-211.845-473.169-473.169 0-50.376 7.872-98.913 22.454-144.449l-0.927 3.35c4.145-13.176 16.25-22.565 30.549-22.565 17.652 0 31.961 14.31 31.961 31.961 0 3.473-0.554 6.816-1.578 9.946l0.064-0.226c-11.828 36.506-18.648 78.51-18.648 122.107 0 0.136 0 0.271 0 0.407v-0.021c0 225.578 183.529 409.106 409.106 409.106s409.106-183.529 409.106-409.106-183.529-409.106-409.106-409.106c-122.398 0.021-232.24 53.759-307.239 138.921l-0.39 0.451c-5.906 7.153-14.774 11.677-24.7 11.677-17.652 0-31.961-14.31-31.961-31.961 0-8.466 3.292-16.163 8.665-21.882l-0.016 0.017c87.149-98.877 214.081-160.926 355.505-160.926 261.308 0 473.139 211.832 473.139 473.139 0 66.37-13.665 129.547-38.336 186.873l1.177-3.075zM102.894 45.763c0 198.171 141.639 363.871 328.993 401.226 14.99-29.631 45.207-49.591 80.086-49.591 49.409 0 89.462 40.054 89.462 89.462s-40.054 89.462-89.462 89.462c-40.821 0-75.257-27.341-85.993-64.709l-0.155-0.631c-221.569-42.026-386.853-234.139-386.853-464.856 0-0.128 0-0.255 0-0.383v0.020c0-0.023 0-0.050 0-0.078 0-29.029 2.591-57.454 7.554-85.054l-0.433 2.901c2.251-15.643 15.564-27.532 31.653-27.532 17.652 0 31.961 14.31 31.961 31.961 0 2.34-0.251 4.621-0.729 6.818l0.038-0.211c-3.895 21.308-6.123 45.83-6.123 70.872 0 0.113 0 0.227 0 0.34v-0.018z" />
<glyph unicode="&#xe90e;" glyph-name="next" d="M832 799.872c0 17.664-14.336 32-32 32s-32-14.336-32-32v-282.88l-553.408 308.416c-18.176 10.112-39.936 10.048-58.112 0-18.24-10.176-29.056-28.288-29.056-48.576v-656.64c0-20.224 10.816-38.464 29.056-48.576 9.088-5.056 19.008-7.616 28.992-7.616s19.968 2.56 29.056 7.616l553.472 308.416v-284.096c0-17.664 14.336-32 32-32s32 14.336 32 32v703.936zM191.808 130.752l-3.136 637.248 573.312-319.488-570.176-317.76z" />
<glyph unicode="&#xe90f;" glyph-name="play" horiz-adv-x="1025" d="M512.268-62.836c-68.659 0-135.4 13.564-198.37 40.317-60.752 25.809-115.373 62.713-162.346 109.686-46.972 46.972-83.876 101.593-109.686 162.346-26.751 62.97-40.315 129.71-40.315 198.369s13.564 135.4 40.315 198.37c25.81 60.752 62.714 115.373 109.686 162.346 46.973 46.972 101.594 83.876 162.346 109.686 62.97 26.751 129.711 40.315 198.37 40.315s135.399-13.564 198.369-40.315c60.752-25.81 115.373-62.714 162.346-109.686 46.972-46.973 83.876-101.594 109.686-162.346 26.752-62.97 40.317-129.711 40.317-198.37s-13.564-135.399-40.317-198.369c-25.809-60.753-62.713-115.374-109.686-162.346-46.972-46.973-101.593-83.877-162.346-109.686-62.97-26.752-129.711-40.317-198.369-40.317zM512.268 909.452c-62.019 0-122.294-12.248-179.152-36.403-54.923-23.333-104.318-56.71-146.811-99.204s-75.871-91.889-99.204-146.811c-24.156-56.858-36.403-117.134-36.403-179.152s12.248-122.293 36.403-179.152c23.333-54.923 56.71-104.318 99.204-146.812 42.493-42.493 91.889-75.871 146.811-99.204 56.858-24.156 117.134-36.403 179.152-36.403s122.293 12.248 179.152 36.403c54.923 23.333 104.318 56.711 146.812 99.204 42.493 42.494 75.871 91.889 99.204 146.812 24.156 56.858 36.403 117.134 36.403 179.152s-12.248 122.294-36.403 179.152c-23.334 54.923-56.711 104.318-99.205 146.811s-91.888 75.871-146.811 99.204c-56.859 24.156-117.135 36.403-179.152 36.403zM425.042 179.958c-4.373 0-8.776 0.899-12.922 2.742-11.492 5.107-18.918 16.534-18.918 29.11v462.973c0 12.522 7.381 23.929 18.805 29.060 11.425 5.131 24.854 3.070 34.214-5.248l233.878-207.891c12.998-11.555 20.492-28.155 20.559-45.545s-7.299-34.048-20.207-45.701l-234.045-211.293c-5.966-5.387-13.618-8.206-21.362-8.206zM442.349 636.28v-385.567l205.169 185.223c3.492 3.154 4.001 7.013 3.993 9.033s-0.546 5.875-4.064 9.002l-205.099 182.309z" />
<glyph unicode="&#xe910;" glyph-name="playing" d="M896-64c-35.346 0-64 28.654-64 64v0 512c0 35.346 28.654 64 64 64s64-28.654 64-64v0-512c0-35.346-28.654-64-64-64v0zM640-64c-35.346 0-64 28.654-64 64v0 896c0 35.346 28.654 64 64 64s64-28.654 64-64v0-896c0-35.346-28.654-64-64-64v0zM384-64c-35.346 0-64 28.654-64 64v0 256c0 35.346 28.654 64 64 64s64-28.654 64-64v0-256c0-35.346-28.654-64-64-64v0zM128-64c-35.346 0-64 28.654-64 64v0 640c0 35.346 28.654 64 64 64s64-28.654 64-64v0-640c0-35.346-28.654-64-64-64v0z" />
<glyph unicode="&#xe911;" d="M614.188 111.794c14.546-53.049 104.793-74.542 201.57-48.005s163.439 91.055 148.893 144.104v0c-14.546 53.049-104.793 74.542-201.57 48.005s-163.439-91.055-148.893-144.104v0z" />
<glyph unicode="&#xe912;" d="M966.7 779.6c0 21.2-17.2 38.4-38.4 38.4s-38.4-17.2-38.4-38.4v-516.9c-13.9 2.9-29.2 4.6-45.6 4.6-18.4 0-38-1.9-58.4-6-97.9-19.5-175.6-80.7-173.6-136.8 1.6-44.4 52.6-72.2 122.4-72.2 18.4 0 38 1.9 58.4 6 97.9 19.5 175.6 80.7 173.6 136.8 0 0.3-0.1 0.5-0.2 0.8 0 0.6 0.2 1.2 0.2 1.9v581.8zM778 133.7c-15-3-29.6-4.5-43.4-4.5-17.6 0-30.4 2.4-38.7 5.1 14.7 16 50.5 40.9 105 51.7 15 3 29.6 4.5 43.4 4.5 17.6 0 30.4-2.4 38.7-5.1-14.7-16-50.5-40.9-105-51.7zM95.7 741.2h611.3c21.2 0 38.4 17.2 38.4 38.4s-17.1 38.4-38.3 38.4h-611.4c-21.2 0-38.4-17.2-38.4-38.4s17.2-38.4 38.4-38.4zM582 596.9h-486.3c-21.2 0-38.4-17.2-38.4-38.4s17.2-38.4 38.4-38.4h486.3c21.2 0 38.4 17.2 38.4 38.4 0 21.3-17.2 38.4-38.4 38.4zM456.8 375.9h-361.1c-21.2 0-38.4-17.2-38.4-38.4s17.2-38.4 38.4-38.4h361.1c21.2 0 38.4 17.2 38.4 38.4s-17.2 38.4-38.4 38.4zM331.7 154.8h-236c-21.2 0-38.4-17.2-38.4-38.4s17.2-38.4 38.4-38.4h236c21.2 0 38.4 17.2 38.4 38.4s-17.2 38.4-38.4 38.4z" />
<glyph unicode="&#xe913;" glyph-name="pre" d="M803.584 825.408c-18.176 10.048-39.936 10.112-58.112 0l-553.472-308.416v282.88c0 17.664-14.336 32-32 32s-32-14.336-32-32v-344.896c-0.256-2.176-0.896-4.224-0.896-6.464s0.64-4.352 0.896-6.528v-346.112c0-17.664 14.336-32 32-32s32 14.336 32 32v284.16l553.408-308.352c9.152-5.12 19.072-7.68 29.12-7.68s19.968 2.56 29.056 7.616c18.176 10.112 28.992 28.224 28.992 48.576v656.704c0 20.224-10.816 38.336-28.992 48.512zM768.192 130.752l-570.176 317.76 573.312 319.488-3.136-637.248z" />
<glyph unicode="&#xe914;" glyph-name="ramdon-play" d="M63.839 225.318c0 7.622 6.167 13.79 13.79 13.79h170.094c20.011 0 38.837 8.295 52.99 22.462l389.285 389.803c19.378 19.365 45.126 29.007 72.489 29.007h150.594l-72.987 74.011c-5.387 5.387-5.387 15.137 0 20.522 5.388 5.387 14.113 5.387 19.5 0l96.512-96.526c2.505-2.492 4.054-5.953 4.054-9.777s-1.549-7.313-4.054-9.803l-96.512-96.567c-2.693-2.693-6.222-4.175-9.749-4.175s-7.057 1.091-9.75 3.784c-5.387 5.387-5.387 13.602 0 18.987l72.987 71.951h-150.596c-19.997 0-38.823-7.285-52.99-21.425l-389.285-388.78c-19.378-19.364-45.112-31.053-72.489-31.053h-170.094c-7.622 0-13.789 6.167-13.789 13.79zM77.629 652.786h165.38c22.717 0 44.951-8.187 61.030-24.253l108.579-108.054c2.693-2.693 6.222-3.784 9.749-3.784s7.057 1.481 9.749 4.161c5.388 5.4 5.388 14.193 0 19.58l-108.577 107.57c-21.519 21.506-50.122 32.373-80.529 32.373h-165.381c-7.622 0-13.79-6.182-13.79-13.803 0.001-7.608 6.168-13.789 13.79-13.789zM840.093 121.088c2.693-2.693 6.222-4.040 9.75-4.040s7.057 1.347 9.749 4.040l96.512 96.526c2.505 2.477 4.054 5.952 4.054 9.749 0 3.824-1.549 7.272-4.054 9.777l-96.512 96.501c-5.387 5.387-14.112 5.387-19.5 0-5.387-5.388-5.387-15.137 0-20.523l72.987-74.011h-145.878c-23.054 0-44.722 10.019-61.030 26.313l-108.58 109.077c-5.387 5.387-14.112 5.656-19.499 0.27s-5.388-13.978 0-19.365l108.578-109.561c21.507-21.492 50.109-34.312 80.529-34.312h145.88l-72.987-71.964c-5.386-5.388-5.386-13.090 0.001-18.477z" />
<glyph unicode="&#xe915;" glyph-name="ranking-list" d="M576 738.58v-576h-128v576h128zM640 802.58h-256v-704h256v704zM864 514.58v-352h-128v352h128zM928 578.58h-256v-480h256v480zM288 322.58v-160h-128v160h128zM352 386.58h-256v-288h256v288z" />
<glyph unicode="&#xe916;" glyph-name="recent-play" d="M127.539 702.092c-47.831-71.272-76.34-159-76.34-253.386 0-0.248 0-0.497 0.001-0.745 0-153.983 76.186-295.18 200.947-380.543 25.344-17.357 52.377-32.103 80.678-44.083 2.21-0.961 4.783-1.52 7.488-1.52 10.606 0 19.203 8.598 19.203 19.203 0 7.901-4.772 14.688-11.591 17.635-60.095 25.766-110.772 62.753-151.553 108.72-34.399 8.729-106.774 136.050-106.774 280.275 0 0.124 0 0.248 0 0.372 0 84 24.576 164.333 69.965 232.877 1.999 2.982 3.189 6.651 3.189 10.598 0 10.605-8.597 19.203-19.203 19.203-6.658 0-12.524-3.388-15.969-8.535zM388.966 3.827c36.647-10.556 78.741-16.627 122.252-16.627 0.275 0 0.549 0 0.824 0.001 0.001 0 0.052 0 0.105 0 69.374 0 135.173 15.31 194.2 42.736 29.179 13.481 59.362 31.721 87.202 53.264 109.473 84.931 179.251 216.51 179.251 364.388 0 0.145 0 0.291 0 0.436 0.001 0.234 0.001 0.538 0.001 0.843 0 125.161-50.125 238.613-131.396 321.38-3.423 3.494-8.284 5.703-13.66 5.703-10.611 0-19.212-8.602-19.212-19.212 0-5.233 2.092-9.979 5.487-13.443 74.433-75.783 120.382-179.764 120.382-294.477 0-0.287 0-0.574-0.001-0.861 0-132.512-61.44-254.855-164.352-334.419-58.655-45.665-131.020-76.412-209.992-85.377 28.423 2.628-9.203-2.579-48.047-2.579-40.136 0-78.974 5.559-115.786 15.949 1.262-0.153-0.735 0.175-2.808 0.175-10.604 0-19.2-8.596-19.2-19.2 0-9.025 6.228-16.597 14.619-18.651zM794.739 811.878c-76.969 60.435-175.239 96.923-282.033 96.923-0.248 0-0.497 0-0.745-0.001-0.217 0.001-0.519 0.001-0.822 0.001-124.053 0-236.604-49.246-319.17-129.256-3.504-3.382-5.755-8.282-5.755-13.708 0-10.604 8.596-19.2 19.2-19.2 5.178 0 9.877 2.049 13.33 5.382 75.545 73.236 178.698 118.383 292.395 118.383 0.302 0 0.605 0 0.907-0.001 95.185 0 185.541-31.565 259.115-88.819 3.219-2.521 7.327-4.043 11.789-4.043 10.61 0 19.21 8.601 19.21 19.21 0 6.147-2.887 11.62-7.38 15.136zM512 448v288c0 0 0 0 0 0 0 10.604-8.596 19.2-19.2 19.2s-19.2-8.596-19.2-19.2c0 0 0 0 0 0v-307.2c0-10.604 8.596-19.2 19.2-19.2 0 0 0 0 0 0h307.2c10.604 0 19.2 8.596 19.2 19.2s-8.596 19.2-19.2 19.2h-288z" />
<glyph unicode="&#xe917;" glyph-name="Music-Playlist" d="M945.323 862.976l0.021-0.149-148.715-41.067-0.619-0.896c-16.459-6.105-27.981-21.661-28.011-39.911v-682.671c0-58.91-47.756-106.667-106.667-106.667v0h-128c-58.91 0-106.667 47.756-106.667 106.667v0 42.667c0 58.91 47.756 106.667 106.667 106.667h192v533.333c0 37.312 24.107 68.693 57.451 80.277l-0.128 0.384 147.221 40.661c0.939 0.448 2.005 0.533 3.029 0.832l4.416 1.237 0.064-0.32c0.448 0.021 0.811 0.256 1.28 0.256 11.782 0 21.333-9.551 21.333-21.333v0c-0.052-9.308-6.13-17.183-14.528-19.926l-0.149-0.042zM725.333 140.949v64h-192c-35.346 0-64-28.654-64-64v0-42.667c0-35.346 28.654-64 64-64v0h128c35.346 0 64 28.654 64 64v0 42.667zM576 332.949h-490.667c-11.782 0-21.333 9.551-21.333 21.333s9.551 21.333 21.333 21.333v0h490.667c11.782 0 21.333-9.551 21.333-21.333s-9.551-21.333-21.333-21.333v0zM576 503.616h-490.667c-11.782 0-21.333 9.551-21.333 21.333s9.551 21.333 21.333 21.333v0h490.667c11.782 0 21.333-9.551 21.333-21.333s-9.551-21.333-21.333-21.333v0zM576 674.283h-490.667c-11.782 0-21.333 9.551-21.333 21.333s9.551 21.333 21.333 21.333h490.667c11.782 0 21.333-9.551 21.333-21.333s-9.551-21.333-21.333-21.333v0zM85.333 204.949h192c11.782 0 21.333-9.551 21.333-21.333s-9.551-21.333-21.333-21.333h-192c-11.782 0-21.333 9.551-21.333 21.333s9.551 21.333 21.333 21.333v0z" />
<glyph unicode="&#xe918;" glyph-name="sort-play" d="M343.845 337.194c-6.581 0-13.188 2.646-19.098 7.628l-93.916 76.538c-9.737 8.232-14.369 20.467-12.275 32.098 1.827 10.206 8.824 18.426 18.708 21.998l117.567 42.425c11.51 4.136 24.268 0.537 32.259-9.026 6.581-7.869 9.414-18.721 7.575-29.022l-24.388-117.124c-2.768-15.351-13.163-25.516-26.431-25.516zM364.742 492.15l-118.13-42.559c-0.86-0.309-0.899-0.524-0.98-0.994-0.296-1.612 0.564-4.204 2.767-6.070l93.903-76.525c0.134-0.12 0.268-0.228 0.389-0.321 0.215 0.591 0.43 1.343 0.591 2.283l24.388 117.096c0.416 2.43-0.618 4.888-1.665 6.138-0.578 0.697-1.074 0.953-1.263 0.953zM496.114 41.746c-246.32 0-446.71 200.39-446.71 446.697 0 246.32 200.389 446.709 446.71 446.709s446.709-200.389 446.709-446.709c0.001-246.307-200.389-446.697-446.709-446.697zM496.114 880.143c-215.982 0-391.7-175.718-391.7-391.7s175.718-391.687 391.7-391.687c215.981 0 391.699 175.705 391.699 391.687s-175.717 391.7-391.699 391.7zM496.114 272.125c-7.602 0-13.752 6.151-13.752 13.752s6.151 13.751 13.752 13.751c104.122 0 188.826 84.703 188.826 188.813 0 104.122-84.703 188.826-188.826 188.826s-188.827-84.703-188.827-188.826c0-7.602-6.151-13.752-13.752-13.752s-13.752 6.151-13.752 13.752c0 119.285 97.045 216.33 216.331 216.33s216.33-97.045 216.33-216.33c0.001-119.271-97.044-216.317-216.33-216.317zM828.212 474.69c-7.602 0-13.752 6.151-13.752 13.752 0 143.124-96.306 269.406-234.193 307.104-7.333 2.001-11.644 9.562-9.643 16.895 2.015 7.333 9.657 11.59 16.896 9.643 149.811-40.962 254.444-178.149 254.444-333.642-0.001-7.601-6.152-13.752-13.752-13.752zM514.66 806.291c-0.255 0-0.51 0-0.765 0.027-5.896 0.322-11.831 0.484-17.781 0.484-7.602 0-13.752 6.151-13.752 13.752s6.151 13.752 13.752 13.752c6.459 0 12.879-0.188 19.286-0.537 7.587-0.403 13.389-6.889 12.973-14.478-0.39-7.319-6.46-13-13.713-13z" />
<glyph unicode="&#xe919;" glyph-name="star" d="M513.138 95.289l-250.311-130.844c-28.444-17.067-62.578-5.689-79.644 22.756-5.689 11.378-5.689 22.756-5.689 34.133l51.2 278.756-199.111 193.422c-22.756 22.756-22.756 56.889 0 79.644 5.689 11.378 17.067 17.067 28.444 17.067l278.756 39.822 125.156 250.311c11.378 28.444 45.511 39.822 73.956 28.444 11.378-5.689 22.756-17.067 28.444-28.444l125.156-250.311 278.756-39.822c28.444-5.689 51.2-34.133 45.511-62.578 0-11.378-5.689-22.756-17.067-34.133l-199.111-193.422 45.511-278.756c5.689-28.444-17.067-62.578-45.511-68.267-11.378 0-22.756 0-34.133 5.689l-250.311 136.533z" />
<glyph unicode="&#xe91a;" glyph-name="star-line" d="M483.556 140.8c17.067 11.378 34.133 11.378 51.2 0l250.311-130.844-45.511 278.756c-5.689 17.067 5.689 39.822 17.067 51.2l199.111 199.111-278.756 39.822c-17.067 0-34.133 17.067-45.511 28.444l-119.467 250.311-125.156-250.311c-5.689-17.067-22.756-28.444-39.822-28.444l-278.756-45.511 199.111-199.111c11.378-5.689 17.067-28.444 17.067-45.511l-45.511-278.756 244.622 130.844zM512 95.289l-250.311-130.844c-28.444-17.067-62.578-5.689-79.644 22.756-5.689 11.378-5.689 22.756-5.689 34.133l51.2 278.756-199.111 193.422c-22.756 22.756-22.756 56.889 0 79.644 5.689 11.378 17.067 17.067 28.444 17.067l278.756 39.822 125.156 250.311c11.378 28.444 45.511 39.822 73.956 28.444 11.378-5.689 22.756-17.067 28.444-28.444l125.156-250.311 278.756-39.822c28.444-5.689 51.2-34.133 45.511-62.578 0-11.378-5.689-22.756-17.067-34.133l-199.111-193.422 45.511-278.756c5.689-28.444-17.067-62.578-45.511-68.267-11.378 0-22.756 0-34.133 5.689l-250.311 136.533z" />
<glyph unicode="&#xe91b;" glyph-name="stop" d="M512 960c-282.784 0-512-229.216-512-512 0-282.768 229.216-512 512-512 282.752 0 512 229.232 512 512 0 282.784-229.248 512-512 512zM512-32c-265.104 0-480 214.912-480 480 0 265.104 214.896 480 480 480 265.056 0 480-214.896 480-480 0-265.088-214.944-480-480-480zM371.008 640c-8.848 0-16-7.168-16-16v-352c0-8.848 7.152-16 16-16s16 7.152 16 16v352c0 8.832-7.168 16-16 16zM652.992 640c-8.848 0-16-7.168-16-16v-352c0-8.848 7.152-16 16-16s16 7.152 16 16v352c0 8.832-7.152 16-16 16z" />
<glyph unicode="&#xe91c;" glyph-name="type" d="M194.939 706.772c-15.055 0-27.262 12.207-27.262 27.263v177.203c0 15.055 12.207 27.262 27.262 27.262 15.056 0 27.262-12.207 27.262-27.262v-177.203c0-15.056-12.207-27.263-27.262-27.263zM194.939 38.85c-15.055 0-27.262 12.208-27.262 27.263v422.561c0 15.056 12.207 27.263 27.262 27.263 15.056 0 27.262-12.207 27.262-27.263v-422.562c0-15.054-12.207-27.262-27.262-27.262zM189.747 462.677c-77.207 0-140.011 62.804-140.011 140.011s62.804 140.011 140.011 140.011 140.011-62.804 140.011-140.011-62.803-140.011-140.011-140.011zM189.747 688.175c-47.136 0-85.487-38.35-85.487-85.487s38.35-85.487 85.487-85.487 85.487 38.351 85.487 85.487c0 47.137-38.35 85.487-85.487 85.487zM215.107 634.663c-0.866 0-1.757 0.080-2.636 0.253l-3.794 0.746c-7.388 1.451-12.207 8.626-10.756 16 1.451 7.388 8.599 12.22 16 10.756l3.793-0.746c7.388-1.451 12.207-8.625 10.756-16-1.277-6.51-6.975-11.009-13.363-11.009zM143.011 575.426c-7.535 0-13.63 6.097-13.63 13.631 0 26.436 14.27 51.063 37.232 64.241 6.536 3.74 14.869 1.504 18.61-5.032 3.753-6.536 1.491-14.87-5.032-18.61-14.523-8.333-23.548-23.894-23.548-40.6 0-7.535-6.097-13.631-13.631-13.631zM494.822 461.412c-15.055 0-27.262 12.207-27.262 27.262v422.563c0 15.055 12.207 27.262 27.262 27.262s27.262-12.207 27.262-27.262v-422.562c-0.001-15.056-12.206-27.263-27.262-27.263zM494.822 38.85c-15.055 0-27.262 12.208-27.262 27.263v177.202c0 15.056 12.207 27.263 27.262 27.263s27.262-12.207 27.262-27.263v-177.203c-0.001-15.054-12.206-27.262-27.262-27.262zM489.63 217.319c-77.207 0-140.011 62.803-140.011 140.011 0 77.206 62.804 140.011 140.011 140.011s140.011-62.804 140.011-140.011c0.001-77.207-62.803-140.011-140.011-140.011zM489.63 442.817c-47.137 0-85.487-38.35-85.487-85.487s38.35-85.488 85.487-85.488c47.136 0 85.487 38.352 85.487 85.488s-38.35 85.487-85.487 85.487zM514.989 389.304c-0.866 0-1.757 0.080-2.635 0.252l-3.794 0.746c-7.387 1.451-12.206 8.626-10.755 16.001 1.451 7.401 8.612 12.247 16 10.756l3.794-0.746c7.387-1.451 12.206-8.625 10.755-16-1.278-6.509-6.976-11.009-13.365-11.009zM442.894 330.068c-7.535 0-13.631 6.097-13.631 13.63 0 26.437 14.27 51.063 37.232 64.241 6.549 3.755 14.87 1.505 18.61-5.032 3.753-6.536 1.491-14.869-5.032-18.61-14.523-8.334-23.548-23.895-23.548-40.601 0-7.533-6.097-13.629-13.63-13.629zM808.336 802.189c-15.055 0-27.262 12.207-27.262 27.263v81.786c0 15.055 12.207 27.262 27.262 27.262 15.056 0 27.263-12.207 27.263-27.262v-81.786c-0.001-15.056-12.207-27.263-27.263-27.263zM808.336 38.85c-15.055 0-27.262 12.208-27.262 27.263v517.979c0 15.056 12.207 27.263 27.262 27.263 15.056 0 27.263-12.207 27.263-27.263v-517.979c-0.001-15.055-12.207-27.263-27.263-27.263zM803.145 558.094c-77.207 0-140.011 62.804-140.011 140.011s62.802 140.012 140.011 140.012c77.206 0 140.011-62.804 140.011-140.011s-62.804-140.012-140.011-140.012zM803.145 783.593c-47.137 0-85.488-38.351-85.488-85.487s38.351-85.487 85.488-85.487c47.136 0 85.486 38.351 85.486 85.487s-38.35 85.487-85.486 85.487zM828.503 730.080c-0.866 0-1.758 0.080-2.635 0.253l-3.794 0.746c-7.388 1.451-12.207 8.626-10.756 16 1.451 7.388 8.612 12.22 16.001 10.756l3.793-0.746c7.388-1.451 12.207-8.625 10.756-16-1.279-6.509-6.976-11.009-13.365-11.009zM756.408 670.843c-7.534 0-13.631 6.097-13.631 13.631 0 26.436 14.27 51.063 37.233 64.241 6.536 3.727 14.856 1.491 18.61-5.032 3.753-6.536 1.491-14.869-5.032-18.61-14.523-8.333-23.548-23.894-23.548-40.6-0.001-7.535-6.098-13.631-13.631-13.631z" />
<glyph unicode="&#xe91d;" glyph-name="video" d="M864 64h-704c-52.8 0-96 43.2-96 96v576c0 52.8 43.2 96 96 96h704c52.8 0 96-43.2 96-96v-576c0-52.8-43.2-96-96-96zM160 768c-17.6 0-32-14.4-32-32v-576c0-17.6 14.4-32 32-32h704c17.6 0 32 14.4 32 32v576c0 17.6-14.4 32-32 32h-704zM433.6 288c-4.8 0-11.2 1.6-16 4.8-9.6 6.4-16 16-16 27.2v256c0 11.2 6.4 22.4 16 27.2 9.6 6.4 22.4 6.4 32 0l222.4-128c9.6-6.4 16-16 16-27.2s-6.4-22.4-16-27.2l-222.4-128c-4.8-3.2-11.2-4.8-16-4.8zM465.6 520v-145.6l126.4 72-126.4 73.6z" />
<glyph unicode="&#xe91e;" glyph-name="glass" d="M435.923 146.548c-207.641 0-376.961 169.319-376.961 376.961s169.319 376.961 376.961 376.961 376.961-169.319 376.961-376.961-168.743-376.961-376.961-376.961zM435.923 843.837c-176.752 0-320.329-143.578-320.329-320.329s143.578-320.329 320.329-320.329 320.329 143.578 320.329 320.329-143.578 320.329-320.329 320.329zM945.015-1.605c-7.438 0-14.873 2.86-20.021 8.579l-252.83 255.119c-10.868 10.868-10.868 29.171 0 40.039s29.171 10.868 40.039 0l252.83-255.119c10.868-10.868 10.868-29.171 0-40.039-5.721-5.721-13.155-8.579-20.021-8.579z" />
<glyph unicode="&#xe91f;" glyph-name="right-arrow" horiz-adv-x="1152" d="M624.576 960l-80.448-80.512 432.064-431.52-432.064-431.456 80.448-80.512 511.52 511.968z" />
<glyph unicode="&#xe920;" glyph-name="uniE920" d="M940.218 852.945h-209.455v60.509h-65.164v-60.509h-302.545v60.509h-65.164v-60.509h-214.109c-18.618 0-32.582-13.964-32.582-32.582v-805.236c0-18.618 13.964-32.582 32.582-32.582h861.091c18.618 0 32.582 13.964 32.582 32.582v805.236c-4.655 18.618-18.618 32.582-37.236 32.582zM297.891 787.782v-60.509h65.164v60.509h307.2v-60.509h65.164v60.509h176.873v-204.8h-795.927v204.8h181.527zM116.364 47.709v470.109h795.927v-470.109h-795.927z" />
<glyph unicode="&#xe921;" glyph-name="arrow-left" d="M629.291 119.168l60.331 60.331-268.501 268.501 268.501 268.501-60.331 60.331-328.832-328.832z" />
<glyph unicode="&#xe922;" glyph-name="password" d="M136.534 499.435v-486.848c0.121-14.046 11.536-25.387 25.599-25.387 0.015 0 0.031 0 0.046 0h691.112c14.336 0 25.643 11.307 25.643 25.365v486.848c-0.133 14.037-11.543 25.365-25.599 25.365-0.015 0-0.031 0-0.046 0h-691.112c-14.336 0-25.643-11.307-25.643-25.365zM85.334 499.435c0 0.007 0 0.014 0 0.022 0 42.274 34.27 76.544 76.544 76.544 0.105 0 0.21 0 0.315-0.001h691.098c0.013 0 0.028 0 0.043 0 42.333 0 76.666-34.251 76.8-76.552v-486.861c0-0.013 0-0.028 0-0.043 0-42.274-34.27-76.544-76.544-76.544-0.105 0-0.21 0-0.315 0.001h-691.098c-0.013 0-0.028 0-0.043 0-42.333 0-76.666 34.251-76.8 76.552v486.861zM290.133 742.4c0 91.733 74.603 166.4 166.421 166.4h89.579c91.899-0.012 166.397-74.502 166.421-166.398v-91.522s7.083-17.557 27.221-17.557c20.16 0 23.979 17.536 23.979 17.536v91.541c-0.021 120.171-97.515 217.6-217.643 217.6h-89.579c-120.171 0-217.6-97.664-217.6-217.6v-192l51.2 9.813v182.187zM290.133 742.4c0 91.733 74.603 166.4 166.421 166.4h89.579c91.899-0.012 166.397-74.502 166.421-166.398v-91.522h51.2v91.52c-0.021 120.171-97.515 217.6-217.643 217.6h-89.579c-120.171 0-217.6-97.664-217.6-217.6v-192l51.2 9.813v182.187zM495.829 383.168v-241.131c0-14.138 11.462-25.6 25.6-25.6s25.6 11.462 25.6 25.6v0 241.131c0 14.138-11.462 25.6-25.6 25.6s-25.6-11.462-25.6-25.6v0z" />
<glyph unicode="&#xe923;" glyph-name="phone" d="M512.001 149.712c-15.635 0-28.363-12.695-28.363-28.33s12.727-28.363 28.363-28.363c15.635 0 28.358 12.698 28.358 28.335 0 15.635-12.723 28.358-28.358 28.358zM512.001 109.304c-6.66 0-12.078 5.418-12.078 12.078 0 6.656 5.418 12.078 12.078 12.078s12.077-5.423 12.078-12.078c0-6.66-5.418-12.078-12.078-12.078zM672.672 853.362h-321.348c-53.052 0-96.241-43.189-96.241-96.27v-56.917c0-0.007-0.001-0.013-0.001-0.019s0.001-0.013 0.001-0.019v-498.885c0-0.007-0.001-0.013-0.001-0.019s0.001-0.013 0.001-0.019v-62.309c0-53.052 43.159-96.265 96.241-96.265h321.347c53.081 0 96.246 43.213 96.246 96.265v618.19c0.001 53.056-43.164 96.27-96.245 96.27zM295.519 679.938h432.959v-458.485h-432.959v458.485zM351.325 812.951v-0.026h321.347c30.762 0 55.805-25.018 55.805-55.833v-36.717h-432.958v36.746c0 30.786 25.020 55.83 55.806 55.83zM672.672 83.101h-321.348c-30.758 0-55.806 25.015-55.806 55.83v42.081h432.959v-42.081c0-30.785-25.020-55.83-55.805-55.83zM480.889 759.437h62.192c11.161 0 20.22 9.058 20.218 20.22 0 11.164-9.058 20.223-20.218 20.223h-62.192c-11.16 0-20.217-9.059-20.217-20.223 0-11.161 9.057-20.22 20.217-20.22z" />
<glyph unicode="&#xe924;" glyph-name="cloud" horiz-adv-x="1344" d="M1086.656 544.384c-13.664 211.584-160.8 415.616-430.656 415.616-246.816 0-437.152-183.456-447.232-428.288-135.040-42.016-208.768-186.528-208.768-291.712 0-161.952 134.592-304 288-304h768c155.104 0 288 167.168 288 304 0 165.344-135.136 294.656-257.344 304.384zM1056-32h-768c-136.384 0-256 127.104-256 272 0 97.632 85.568 272 256 272h48c8.837 0 16 7.163 16 16s-7.163 16-16 16v0h-48c-16.288 0-31.68-1.824-46.688-4.448 12.544 191.68 158.24 388.448 414.688 388.448 274.816 0 400-215.648 400-416v-48c0-8.837 7.163-16 16-16s16 7.163 16 16v0 48.288c96.608-10.592 224-114.272 224-272.288 0-122.432-118.112-272-256-272z" />
<glyph unicode="&#xe925;" glyph-name="download" d="M502.010 194.060c3.774-3.72 8.687-5.574 13.597-5.574 0.076 0 0.151 0.010 0.227 0.011 0.33-0.016 0.655-0.050 0.989-0.050 0.706 0 1.401 0.043 2.088 0.117 4.352 0.366 8.607 2.191 11.961 5.496l335.054 330.167c7.62 7.509 7.71 19.773 0.201 27.394s-19.774 7.712-27.395 0.202l-302.538-298.127v656.285c0 10.699-8.673 19.371-19.371 19.371s-19.371-8.673-19.371-19.371v-657.032l-306.881 302.448c-7.619 7.509-19.884 7.42-27.394-0.2s-7.42-19.885 0.2-27.394l338.636-333.743zM867.17 248.979c-10.699 0-19.371-8.673-19.371-19.371v-165.419c0-13.054-10.621-23.675-23.676-23.675h-618.941c-13.054 0-23.676 10.621-23.676 23.675v165.419c0 10.699-8.673 19.371-19.371 19.371s-19.371-8.673-19.371-19.371v-165.419c0-34.417 28.001-62.417 62.418-62.417h618.942c34.418 0 62.418 28 62.418 62.417v165.419c0.001 10.699-8.671 19.371-19.37 19.371z" />
<glyph unicode="&#xe926;" glyph-name="multi-select" d="M841.6 89.6l32 32v374.4h-64v-342.4h-592v588.8h560v64h-592l-32-32v-652.8l32-32zM492.8 345.6l-188.8 188.8-44.8-44.8 211.2-211.2h44.8l396.8 396.8-48 44.8z" />
<glyph unicode="&#xe927;" glyph-name="share" d="M844.8 780.8h-179.2c-15.36 0-25.6-12.8-25.6-25.6s10.24-25.6 25.6-25.6h112.64l-386.56-368.64c-10.24-10.24-10.24-25.6 0-35.84s25.6-10.24 35.84 0l391.68 373.76v-122.88c0-12.8 10.24-25.6 25.6-25.6s25.6 12.8 25.6 25.6v179.2c0 15.36-12.8 25.6-25.6 25.6zM819.2 166.4c0-28.16-23.040-51.2-51.2-51.2h-514.56c-28.16 0-51.2 23.040-51.2 51.2l2.56 512c0 28.16 23.040 51.2 51.2 51.2h281.6v51.2h-281.6c-56.32 0-102.4-56.32-102.4-112.64v-504.32c0-53.76 46.080-99.84 99.84-99.84h504.32c56.32 0 112.64 46.080 112.64 102.4v281.6h-51.2v-281.6z" />
<glyph unicode="&#xe928;" glyph-name="Headset" d="M516.438 831.923c-219.702 0-397.238-177.537-397.238-397.238v-332.881c0-24.411 19.973-44.384 44.384-44.384h93.207c24.411 0 44.384 19.973 44.384 44.384v219.702c0 24.411-19.973 44.384-44.384 44.384h-93.207v68.795c0 195.29 157.564 352.854 352.854 352.854s352.854-157.564 352.854-352.854v-68.795h-57.699c-13.315 0-22.192-8.877-22.192-22.192s8.877-22.192 22.192-22.192l57.699 2.219v-221.921l-95.426-2.219v197.51c0 13.315-8.877 22.192-22.192 22.192s-22.192-8.877-22.192-22.192v-197.51c0-24.411 19.973-42.165 42.165-42.165h95.426c24.411 0 42.165 19.973 42.165 42.165v337.32c4.438 217.482-175.317 395.019-392.8 395.019zM163.584 321.505h93.207v-219.702h-93.207v219.702z" />
<glyph unicode="&#xe929;" glyph-name="more_if" d="M511.177 718.054c50.521 0 91.487 40.056 91.487 89.447 0 49.408-40.966 89.455-91.487 89.455-50.528 0-91.486-40.047-91.486-89.455 0-49.391 40.958-89.447 91.486-89.447v0zM511.177 539.144c-50.528 0-91.486-40.049-91.486-89.448s40.958-89.455 91.486-89.455c50.521 0 91.487 40.055 91.487 89.455s-40.966 89.448-91.487 89.448v0zM511.177 181.337c-50.528 0-91.486-40.008-91.486-89.454 0-49.4 40.958-89.448 91.486-89.448 50.521 0 91.487 40.048 91.487 89.448 0 49.446-40.966 89.454-91.487 89.454v0z" />
<glyph unicode="&#xe92a;" glyph-name="1" d="M584.818 258.56c-10.524 0-18.963 6.068-18.963 19.532v266.999c0 13.464 8.439 21.428 18.963 21.428s18.963-7.964 18.963-21.428v-266.999c0-13.464-8.439-20.48-18.963-20.48v0.948zM439.182 256.664c-10.524 0-18.963 7.964-18.963 21.428v266.999c0 13.464 8.439 20.48 18.963 20.48s18.963-7.016 18.963-20.48v-266.999c0-13.464-8.439-21.428-18.963-21.428v0zM827.544 666.453h-121.363v48.545c0 40.107-32.427 72.818-72.249 72.818h-243.295c-40.107 0-72.818-32.711-72.818-72.818v-48.545h-121.363c-13.464 0-24.273-6.068-24.273-19.532s10.809-19.532 24.273-19.532h631.087c13.464 0 24.273 6.068 24.273 19.532s-10.809 19.532-24.273 19.532v0zM356.883 724.48c0 13.369 10.904 24.273 24.273 24.273h262.258c13.274 0 23.704-10.619 23.704-24.273v-58.027h-310.234v58.027zM682.003 117.665h-339.721c-54.044 0-72.913 20.29-72.913 72.913v354.228c0 14.317 6.068 25.884 20.385 24.841 12.61-0.948 18.679-11.378 18.679-24.178v-364.468c0-13.369 10.904-24.273 24.273-24.273h358.684c13.464 0 24.367 10.904 24.367 24.367v363.33c0 13.369 6.068 24.273 19.532 24.273s19.532-10.904 19.532-24.273v-353.944c0-56.32-17.541-72.818-72.818-72.818v0z" />
<glyph unicode="&#xe92b;" glyph-name="uniE92B" d="M437.78 816.64h-139.878c-11.311 0-20.48-9.169-20.48-20.48s9.169-20.48 20.48-20.48v0h139.878c39.076 0 70.861-32.113 70.861-71.68v-5.325c0-11.311 9.169-20.48 20.48-20.48v0h362.824c39.035 0 70.615-31.949 70.615-71.926v-96.829c0-11.311 9.169-20.48 20.48-20.48s20.48 9.169 20.48 20.48v0 96.829c0 62.505-49.807 112.886-111.575 112.886h-343.327c-7.503 55.181-54.223 97.285-110.817 97.485h-0.021zM962.56 427.52v-282.542c0-36.127-31.212-65.618-70.861-65.618h-508.15c-11.311 0-20.48-9.169-20.48-20.48s9.169-20.48 20.48-20.48v0h508.15c61.768 0 111.821 47.309 111.821 106.578v282.542c0 11.311-9.169 20.48-20.48 20.48s-20.48-9.169-20.48-20.48v0zM297.902 79.36h-164.905c-39.076 0-71.557 36.168-71.557 82.125v143.155c0 11.311-9.169 20.48-20.48 20.48s-20.48-9.169-20.48-20.48v0-143.155c0-67.625 49.807-123.085 112.517-123.085h164.905c11.311 0 20.48 9.169 20.48 20.48s-9.169 20.48-20.48 20.48v0zM61.44 345.6v365.445c0 35.062 32.522 64.635 72.827 64.635h120.832c11.311 0 20.48 9.169 20.48 20.48s-9.169 20.48-20.48 20.48v0h-120.832c-62.095 0-113.787-46.981-113.787-105.595v-365.445c0-11.311 9.169-20.48 20.48-20.48s20.48 9.169 20.48 20.48v0zM327.68 611.84v-245.76c0-11.311 9.169-20.48 20.48-20.48s20.48 9.169 20.48 20.48v245.76c0 11.311-9.169 20.48-20.48 20.48s-20.48-9.169-20.48-20.48v0zM225.28 468.48h245.76c11.311 0 20.48 9.169 20.48 20.48s-9.169 20.48-20.48 20.48h-245.76c-11.311 0-20.48-9.169-20.48-20.48s9.169-20.48 20.48-20.48v0z" />
<glyph unicode="&#xe92c;" glyph-name="close" d="M176.662 142.827c-8.19-8.471-7.96-21.977 0.51-30.165 8.472-8.19 21.978-7.96 30.166 0.51l618.667 640c8.189 8.472 7.96 21.978-0.511 30.166-8.471 8.19-21.977 7.96-30.166-0.51l-618.666-640zM795.328 113.173c8.19-8.471 21.695-8.7 30.166-0.511s8.7 21.694 0.511 30.165l-618.667 640c-8.188 8.471-21.694 8.7-30.165 0.511s-8.7-21.694-0.511-30.165l618.666-640z" />
<glyph unicode="&#xe92d;" glyph-name="SOUND-PLUS" d="M764.744 190.628c0.001 0 0.003 0 0.004 0 5.828 0 11.087 2.434 14.816 6.341l0.008 0.008c58.409 61.174 91.894 150.159 91.894 244.163 0 93.983-33.505 182.968-91.873 244.142-3.681 3.55-8.697 5.738-14.224 5.738-11.322 0-20.5-9.178-20.5-20.5 0-5.191 1.929-9.931 5.11-13.543l-0.020 0.023c51.2-53.637 80.568-132.321 80.568-215.859 0-83.558-29.368-162.243-80.589-215.88-3.497-3.67-5.649-8.649-5.649-14.131 0-11.306 9.153-20.475 20.453-20.5h0.002zM696.648 253.809c0.004 0 0.009 0 0.015 0 5.559 0 10.6 2.219 14.284 5.82l-0.004-0.004c45.568 44.483 71.7 110.612 71.7 181.473 0 70.881-26.132 137.011-71.7 181.494-3.705 3.698-8.82 5.985-14.469 5.985-11.311 0-20.48-9.169-20.48-20.48 0-5.832 2.438-11.095 6.35-14.825l0.008-0.008c37.704-36.803 59.331-92.283 59.331-152.187s-21.647-115.364-59.331-152.166c-3.791-3.72-6.141-8.897-6.141-14.623 0-11.295 9.144-20.455 20.434-20.48h0.002zM616.12 354.386c-4.249-3.774-6.913-9.251-6.913-15.351 0-11.322 9.178-20.5 20.5-20.5 4.82 0 9.251 1.663 12.751 4.447l-0.042-0.032c32.195 26.911 51.425 71.107 51.425 118.17 0 47.78-19.681 92.324-52.634 119.194-3.375 2.54-7.638 4.068-12.258 4.068-11.322 0-20.5-9.178-20.5-20.5 0-6.090 2.655-11.56 6.871-15.314l0.021-0.018c23.511-19.169 37.56-51.855 37.56-87.45-0.041-35.082-13.783-67.502-36.782-86.712zM492.134 703.263l-167.997-125.624h-87.552c-11.311 0-20.48-9.169-20.48-20.48v0-232.12c0-11.311 9.169-20.48 20.48-20.48v0h87.552l167.997-125.624c3.376-2.557 7.646-4.096 12.275-4.096 3.343 0 6.498 0.802 9.283 2.225l-0.116-0.054c6.922 3.482 11.305 10.568 11.305 18.33v491.52c0 7.762-4.383 14.848-11.305 18.33-2.668 1.35-5.816 2.14-9.148 2.14-4.631 0-8.906-1.526-12.348-4.104l0.054 0.039zM483.922 236.216l-140.698 105.226c-3.378 2.543-7.644 4.074-12.267 4.076h-73.892v191.16h73.892c4.424 0 8.724 1.434 12.268 4.076l140.698 105.226v-409.764z" />
<glyph unicode="&#xe92e;" glyph-name="Like-2" horiz-adv-x="1032" d="M335.36 512h-79.36v64h48.64l111.36 139.232v116.768c0 70.592 57.408 128 128 128s128-57.408 128-128h-64c0 35.296-28.704 64-64 64s-64-28.704-64-64v-139.232l-144.64-180.768zM889.984-64l-354.784 1.248-219.68 62.752h-59.52v64l72.8-1.248 219.68-62.752h291.456l112.768 454.080-344.704 62.176v315.744h64v-262.24l359.296-64.832zM192 0h-192v576h192v-576zM64 64h64v448h-64v-448z" />
</font>
</defs>
</svg>
